<svg width="28" height="28" fill="none" xmlns="http://www.w3.org/2000/svg"><circle cx="14" cy="14" r="14" fill="#C4C4C4"/><path d="M17.065 5.467h-6.326a5.272 5.272 0 00-5.272 5.272v6.326a5.272 5.272 0 005.272 5.271h6.326a5.272 5.272 0 005.271-5.271v-6.326a5.272 5.272 0 00-5.271-5.272zm3.69 11.598a3.694 3.694 0 01-3.69 3.69h-6.326a3.694 3.694 0 01-3.69-3.69v-6.326a3.694 3.694 0 013.69-3.69h6.326a3.694 3.694 0 013.69 3.69v6.326z" fill="#000"/><path d="M13.902 9.684a4.218 4.218 0 100 8.435 4.218 4.218 0 000-8.435zm0 6.853a2.64 2.64 0 01-2.636-2.635 2.639 2.639 0 012.636-2.636 2.639 2.639 0 012.635 2.636 2.64 2.64 0 01-2.635 2.635zm4.534-6.607a.562.562 0 100-1.124.562.562 0 000 1.124z" fill="#000"/></svg>