<svg width="28" height="28" fill="none" xmlns="http://www.w3.org/2000/svg"><circle cx="14" cy="14" r="14" fill="#C4C4C4"/><g clip-path="url(#clip0_25:278)"><path d="M19.277 15.16c-.259-.314-.184-.454 0-.736.003-.003 2.139-2.848 2.359-3.813h.001c.11-.353 0-.611-.529-.611H19.36c-.445 0-.65.222-.76.47 0 0-.891 2.056-2.151 3.388-.407.385-.595.509-.817.509-.11 0-.28-.124-.28-.475V10.61c0-.422-.124-.61-.493-.61h-2.75c-.28 0-.446.197-.446.38 0 .4.63.492.696 1.617v2.44c0 .536-.101.634-.325.634-.594 0-2.038-2.064-2.893-4.427-.173-.458-.341-.643-.79-.643H6.6c-.5 0-.6.221-.6.47 0 .438.595 2.618 2.765 5.498C10.212 17.935 12.25 19 14.103 19c1.114 0 1.25-.237 1.25-.643 0-1.879-.1-2.056.457-2.056.259 0 .704.123 1.744 1.071 1.19 1.125 1.384 1.628 2.05 1.628h1.75c.498 0 .75-.237.605-.703-.332-.982-2.58-3.001-2.682-3.136z" fill="#000"/></g><defs><clipPath id="clip0_25:278"><path fill="#fff" transform="translate(6 10)" d="M0 0h16v9H0z"/></clipPath></defs></svg>